<svg width="16" height="16" viewBox="0 0 16 16" fill="none" xmlns="http://www.w3.org/2000/svg">
<path d="M11.6389 6.4303H11.131V4.10303C11.131 3.28006 10.8099 2.49079 10.2383 1.90886C9.66678 1.32693 8.89161 1 8.08333 1C7.27505 1 6.49988 1.32693 5.92834 1.90886C5.3568 2.49079 5.03571 3.28006 5.03571 4.10303V6.4303H4.52778C4.05646 6.43088 3.6046 6.62178 3.27133 6.96111C2.93805 7.30044 2.75057 7.76051 2.75 8.2404V13.4121C2.75057 13.892 2.93805 14.3521 3.27133 14.6914C3.6046 15.0307 4.05646 15.2216 4.52778 15.2222H11.6389C12.1102 15.2216 12.5621 15.0307 12.8953 14.6914C13.2286 14.3521 13.4161 13.892 13.4167 13.4121V8.2404C13.4161 7.76051 13.2286 7.30044 12.8953 6.96111C12.5621 6.62178 12.1102 6.43088 11.6389 6.4303ZM6.05159 4.10303C6.05159 3.55438 6.26565 3.0282 6.64667 2.64025C7.0277 2.25229 7.54448 2.03434 8.08333 2.03434C8.62219 2.03434 9.13897 2.25229 9.51999 2.64025C9.90102 3.0282 10.1151 3.55438 10.1151 4.10303V6.4303H6.05159V4.10303Z" fill="currentColor"/>
</svg>
