<svg width="15" height="15" viewBox="0 0 15 15" fill="none" xmlns="http://www.w3.org/2000/svg">
<path d="M8.49123 0.927952L14.0594 11.7733C14.1772 12.0313 14.2329 12.318 14.2211 12.6061C14.2093 12.8943 14.1304 13.1744 13.9919 13.4198C13.8534 13.6652 13.6598 13.8678 13.4297 14.0083C13.1995 14.1488 12.9404 14.2226 12.6768 14.2227L1.54663 14.2227C1.13737 14.2225 0.744834 14.0449 0.455019 13.7286C0.165203 13.4123 0.00173754 12.9832 0.000434802 12.5352C0.00114909 12.2654 0.0594748 11.9995 0.170758 11.7587L5.72861 0.935887C5.85678 0.655458 6.05358 0.419504 6.29708 0.254332C6.54059 0.0891613 6.82122 0.00126394 7.10769 0.000441862C7.39416 -0.000380218 7.6752 0.0859035 7.9195 0.249673C8.16379 0.413444 8.36172 0.648263 8.49123 0.927952Z" fill="#1170CE"/>
</svg>
