<svg width="15" height="15" viewBox="0 0 15 15" fill="none" xmlns="http://www.w3.org/2000/svg">
<path d="M9.3799 14.1834L14.948 3.33805C15.0659 3.08006 15.1216 2.79336 15.1098 2.50519C15.098 2.21702 15.0191 1.93694 14.8805 1.69154C14.742 1.44614 14.5485 1.24356 14.3183 1.10304C14.0882 0.962526 13.829 0.888734 13.5655 0.888672L2.4353 0.888671C2.02604 0.888784 1.63351 1.06645 1.34369 1.38274C1.05388 1.69903 0.890409 2.12817 0.889107 2.57613C0.889821 2.84595 0.948146 3.11185 1.05943 3.35261L6.61728 14.1754C6.74545 14.4559 6.94225 14.6918 7.18576 14.857C7.42926 15.0222 7.70989 15.1101 7.99636 15.1109C8.28283 15.1117 8.56388 15.0254 8.80817 14.8617C9.05246 14.6979 9.25039 14.4631 9.3799 14.1834Z" fill="#1170CE"/>
</svg>
