<svg width="12" height="12" viewBox="0 0 12 12" fill="none" xmlns="http://www.w3.org/2000/svg">
<path d="M9.11753 1.56849C8.99553 1.6209 8.88518 1.69708 8.79294 1.79259L4.49994 6.08559V7.49959H5.91394L10.2069 3.20659C10.3024 3.11435 10.3786 3.004 10.431 2.882C10.4834 2.75999 10.511 2.62877 10.5122 2.49599C10.5133 2.36321 10.488 2.23154 10.4378 2.10864C10.3875 1.98574 10.3132 1.87409 10.2193 1.7802C10.1254 1.68631 10.0138 1.61205 9.89089 1.56177C9.768 1.51149 9.63632 1.48619 9.50354 1.48734C9.37076 1.4885 9.23954 1.51608 9.11753 1.56849Z" fill="currentColor"/>
<path fill-rule="evenodd" clip-rule="evenodd" d="M9.74889 1.90885C9.67208 1.87742 9.58978 1.86161 9.50679 1.86233C9.42381 1.86305 9.34179 1.88029 9.26554 1.91305C9.18929 1.9458 9.12033 1.99342 9.06267 2.05311L9.05814 2.0578L4.87494 6.24092V7.12459H5.75861L9.94638 2.93682C10.0061 2.87916 10.0537 2.81024 10.0865 2.73399C10.1192 2.65773 10.1365 2.57572 10.1372 2.49274C10.1379 2.40975 10.1221 2.32745 10.0907 2.25064C10.0593 2.17383 10.0128 2.10405 9.95417 2.04536C9.89548 1.98668 9.8257 1.94027 9.74889 1.90885ZM9.50028 1.11236C9.68285 1.11077 9.86391 1.14556 10.0329 1.2147C10.2019 1.28383 10.3554 1.38593 10.4845 1.51503C10.6136 1.64414 10.7157 1.79766 10.7848 1.96664C10.854 2.13562 10.8888 2.31668 10.8872 2.49925C10.8856 2.68183 10.8477 2.86225 10.7756 3.03001C10.704 3.19668 10.6001 3.34753 10.47 3.47387L6.1791 7.76476C6.10878 7.83508 6.01339 7.87459 5.91394 7.87459H4.49994C4.29283 7.87459 4.12494 7.7067 4.12494 7.49959V6.08559C4.12494 5.98614 4.16445 5.89075 4.23477 5.82043L8.52567 1.52953C8.65201 1.3994 8.80285 1.29553 8.96952 1.22394C9.13728 1.15187 9.31771 1.11394 9.50028 1.11236ZM2.02773 2.52761C2.28559 2.26974 2.63533 2.12488 3 2.12488H5.5C5.70711 2.12488 5.875 2.29277 5.875 2.49988C5.875 2.70698 5.70711 2.87488 5.5 2.87488H3C2.83424 2.87488 2.67527 2.94073 2.55806 3.05794C2.44085 3.17515 2.375 3.33412 2.375 3.49988V8.99988C2.375 9.16564 2.44085 9.32461 2.55806 9.44182C2.67527 9.55903 2.83424 9.62488 3 9.62488H8.5C8.66576 9.62488 8.82473 9.55903 8.94194 9.44182C9.05915 9.32461 9.125 9.16564 9.125 8.99988V6.49988C9.125 6.29277 9.29289 6.12488 9.5 6.12488C9.7071 6.12488 9.875 6.29277 9.875 6.49988V8.99988C9.875 9.36455 9.73013 9.71429 9.47227 9.97215C9.21441 10.23 8.86467 10.3749 8.5 10.3749H3C2.63533 10.3749 2.28559 10.23 2.02773 9.97215C1.76987 9.71429 1.625 9.36455 1.625 8.99988V3.49988C1.625 3.13521 1.76987 2.78547 2.02773 2.52761Z" fill="currentColor"/>
</svg>
