<svg width="32" height="32" viewBox="0 0 32 32" fill="none" xmlns="http://www.w3.org/2000/svg">
<path d="M16 0.8125C12.9962 0.8125 10.0599 1.70323 7.56228 3.37206C5.06471 5.04088 3.11809 7.41284 1.96859 10.188C0.819081 12.9631 0.518317 16.0168 1.10433 18.9629C1.69034 21.909 3.13681 24.6152 5.26082 26.7392C7.38483 28.8632 10.091 30.3097 13.0371 30.8957C15.9832 31.4817 19.0369 31.1809 21.812 30.0314C24.5872 28.8819 26.9591 26.9353 28.628 24.4377C30.2968 21.9402 31.1875 19.0038 31.1875 16C31.1831 11.9734 29.5816 8.11293 26.7343 5.26567C23.8871 2.41841 20.0266 0.816895 16 0.8125ZM14.875 9.25C14.875 8.95163 14.9935 8.66548 15.2045 8.45451C15.4155 8.24353 15.7016 8.125 16 8.125C16.2984 8.125 16.5845 8.24353 16.7955 8.45451C17.0065 8.66548 17.125 8.95163 17.125 9.25V17.125C17.125 17.4234 17.0065 17.7095 16.7955 17.9205C16.5845 18.1315 16.2984 18.25 16 18.25C15.7016 18.25 15.4155 18.1315 15.2045 17.9205C14.9935 17.7095 14.875 17.4234 14.875 17.125V9.25ZM15.9999 22.75C15.7218 22.75 15.4499 22.6675 15.2186 22.513C14.9874 22.3585 14.8071 22.1389 14.7007 21.8819C14.5942 21.6249 14.5664 21.3422 14.6207 21.0694C14.6749 20.7966 14.8088 20.546 15.0055 20.3494C15.2022 20.1527 15.4528 20.0188 15.7255 19.9645C15.9983 19.9103 16.2811 19.9381 16.538 20.0445C16.795 20.151 17.0146 20.3312 17.1691 20.5625C17.3237 20.7937 17.4061 21.0656 17.4061 21.3438C17.4061 21.7167 17.258 22.0744 16.9943 22.3381C16.7305 22.6018 16.3728 22.75 15.9999 22.75Z" fill="#FC8B98"/>
</svg>
