<svg width="16" height="16" viewBox="0 0 16 16" fill="none" xmlns="http://www.w3.org/2000/svg">
<path d="M12.8942 11.3544C12.9408 11.4008 12.996 11.4374 13.0567 11.4624C13.1174 11.4874 13.1825 11.5001 13.2481 11.5C13.3138 11.4998 13.3788 11.4867 13.4394 11.4614C13.5 11.436 13.555 11.3991 13.6013 11.3525C14.4927 10.463 14.9957 9.25677 15.0002 7.99749C15.0045 7.37578 14.8851 6.75942 14.6489 6.18428C14.4128 5.60914 14.0646 5.08671 13.6247 4.64739C13.5784 4.60084 13.5234 4.56386 13.4628 4.53857C13.4022 4.51327 13.3372 4.50016 13.2716 4.49998C13.2059 4.4998 13.1409 4.51255 13.0801 4.5375C13.0194 4.56246 12.9642 4.59913 12.9176 4.64543C12.8711 4.69173 12.8341 4.74674 12.8088 4.80733C12.7835 4.86791 12.7704 4.93289 12.7702 4.99855C12.7701 5.0642 12.7828 5.12925 12.8078 5.18997C12.8327 5.2507 12.8694 5.30592 12.9157 5.35247C13.2626 5.69869 13.5371 6.11046 13.7233 6.56381C13.9095 7.01715 14.0036 7.50302 14.0002 7.9931C13.9963 8.98953 13.5979 9.94386 12.8923 10.6474C12.846 10.6939 12.8093 10.7491 12.7843 10.8099C12.7593 10.8706 12.7466 10.9357 12.7468 11.0013C12.7469 11.067 12.7601 11.132 12.7854 11.1926C12.8107 11.2531 12.8477 11.3082 12.8942 11.3544Z" fill="currentColor"/>
<path d="M3.133 5.24995H2.49994C2.16853 5.2503 1.85079 5.38211 1.61644 5.61645C1.3821 5.8508 1.25029 6.16854 1.24994 6.49995V9.49995C1.25029 9.83137 1.3821 10.1491 1.61644 10.3835C1.85079 10.6178 2.16853 10.7496 2.49994 10.75H4.39936L7.89618 14.103C7.9661 14.1729 8.05518 14.2205 8.15217 14.2398C8.24915 14.2591 8.34968 14.2492 8.44104 14.2114C8.5324 14.1735 8.61048 14.1095 8.66542 14.0272C8.72036 13.945 8.74968 13.8484 8.74968 13.7495V10.8667L3.133 5.24995Z" fill="currentColor"/>
<path d="M11.3315 10.6243L11.3547 10.6025C12.0492 9.91296 12.4582 8.98698 12.5002 8.00923C12.4602 7.02558 12.0513 6.09306 11.3547 5.39741C11.3084 5.35086 11.2534 5.31388 11.1928 5.28859C11.1322 5.26329 11.0672 5.25018 11.0016 5.25C10.9359 5.24982 10.8709 5.26257 10.8101 5.28752C10.7494 5.31248 10.6942 5.34915 10.6476 5.39545C10.5536 5.48895 10.5006 5.61597 10.5002 5.74857C10.5 5.81422 10.5128 5.87927 10.5378 5.93999C10.5627 6.00072 10.5994 6.05594 10.6457 6.10249C11.1524 6.61335 11.4561 7.29103 11.5002 8.00923C11.4594 8.71727 11.1592 9.38548 10.6569 9.88618L10.6242 9.91703L8.74971 8.04253V2.25044C8.74977 2.15199 8.72075 2.05572 8.66631 1.9737C8.61187 1.89169 8.53442 1.82757 8.44368 1.78939C8.35294 1.75122 8.25294 1.74069 8.15624 1.75913C8.05954 1.77756 7.97043 1.82414 7.9001 1.89302L5.19452 4.48744L1.85347 1.14644C1.75972 1.05268 1.63255 1 1.49996 1C1.36736 0.999999 1.2402 1.05267 1.14644 1.14643C1.05268 1.24019 1 1.36735 1 1.49995C0.999999 1.63254 1.05267 1.75971 1.14643 1.85347L14.1467 14.8535C14.2405 14.9472 14.3676 14.9999 14.5002 14.9999C14.6328 14.9999 14.76 14.9472 14.8537 14.8535C14.9475 14.7597 15.0002 14.6325 15.0002 14.5C15.0002 14.3674 14.9475 14.2402 14.8537 14.1464L11.3315 10.6243Z" fill="currentColor"/>
</svg>
