<svg width="16" height="16" viewBox="0 0 16 16" fill="none" xmlns="http://www.w3.org/2000/svg">
<path d="M13.6245 4.64737C13.5782 4.60085 13.5232 4.5639 13.4627 4.53864C13.4021 4.51338 13.3371 4.50029 13.2715 4.50013C13.2059 4.49997 13.1408 4.51274 13.0801 4.53771C13.0194 4.56268 12.9643 4.59936 12.9177 4.64566C12.8712 4.69195 12.8343 4.74696 12.809 4.80753C12.7837 4.86811 12.7707 4.93307 12.7705 4.9987C12.7703 5.06433 12.7831 5.12935 12.8081 5.19005C12.8331 5.25074 12.8697 5.30593 12.916 5.35245C13.2628 5.69882 13.5372 6.1107 13.7233 6.56412C13.9094 7.01754 14.0035 7.50344 14 7.99356C13.9962 8.98982 13.598 9.94402 12.8924 10.6474C12.7989 10.7414 12.7466 10.8688 12.747 11.0015C12.7474 11.1341 12.8005 11.2611 12.8946 11.3546C12.9886 11.4481 13.116 11.5004 13.2487 11.5C13.3813 11.4996 13.5083 11.4465 13.6018 11.3524C14.493 10.4629 14.9957 9.25662 15 7.99745C15.0045 7.37571 14.8852 6.75931 14.649 6.18415C14.4129 5.60899 14.0646 5.08658 13.6245 4.64737Z" fill="#64B4FA"/>
<path d="M10.6475 5.39541C10.6009 5.4417 10.5639 5.49671 10.5386 5.5573C10.5133 5.61789 10.5002 5.68287 10.5 5.74853C10.4998 5.81418 10.5126 5.87924 10.5375 5.93996C10.5625 6.00069 10.5992 6.0559 10.6455 6.10245C11.1523 6.61324 11.456 7.29096 11.5 8.00918C11.458 8.72249 11.1537 9.39505 10.6455 9.89737C10.552 9.99139 10.4997 10.1187 10.5001 10.2513C10.5004 10.3839 10.5534 10.5109 10.6475 10.6044C10.7415 10.6979 10.8688 10.7502 11.0014 10.7499C11.134 10.7495 11.261 10.6965 11.3545 10.6024C12.0491 9.91298 12.4581 8.98696 12.5 8.00918C12.4602 7.02551 12.0512 6.09297 11.3545 5.39737C11.3082 5.35075 11.2532 5.31371 11.1927 5.28837C11.1321 5.26303 11.0671 5.2499 11.0014 5.24972C10.9357 5.24954 10.8706 5.26231 10.8099 5.28731C10.7492 5.31231 10.694 5.34905 10.6475 5.39541Z" fill="#64B4FA"/>
<path d="M8.44165 1.78848C8.35112 1.75069 8.25146 1.74044 8.15513 1.75903C8.05881 1.77762 7.97011 1.82422 7.90015 1.89298L4.39942 5.24991H2.5C2.16859 5.25026 1.85085 5.38206 1.6165 5.61641C1.38216 5.85075 1.25035 6.16849 1.25 6.49991V9.49991C1.25035 9.83132 1.38216 10.1491 1.6165 10.3834C1.85085 10.6178 2.16859 10.7496 2.5 10.7499H4.39942L7.89624 14.1029C7.96618 14.1729 8.05528 14.2205 8.15228 14.2398C8.24927 14.259 8.34981 14.2492 8.44118 14.2113C8.53255 14.1735 8.61066 14.1094 8.66563 14.0272C8.7206 13.945 8.74996 13.8483 8.75 13.7494V2.25039C8.7501 2.15152 8.72085 2.05485 8.66596 1.97262C8.61107 1.89039 8.533 1.8263 8.44165 1.78848Z" fill="#64B4FA"/>
</svg>
