<svg width="64" height="64" viewBox="0 0 64 64" fill="none" xmlns="http://www.w3.org/2000/svg">
<rect width="64" height="64" rx="32" fill="#36220C"/>
<path d="M46.807 40.7191L34.4353 19.3408C34.1886 18.9133 33.8337 18.5583 33.4063 18.3115C32.9789 18.0646 32.494 17.9346 32.0005 17.9345C31.5069 17.9344 31.022 18.0642 30.5945 18.3108C30.167 18.5575 29.812 18.9123 29.565 19.3397L17.19 40.719C16.9432 41.1466 16.8132 41.6316 16.8132 42.1253C16.8132 42.619 16.9432 43.104 17.19 43.5315C17.4369 43.9591 17.7919 44.3141 18.2194 44.561C18.647 44.8078 19.132 44.9378 19.6257 44.9378H44.3724C44.8661 44.9377 45.351 44.8077 45.7785 44.5608C46.2059 44.3139 46.5609 43.9588 46.8076 43.5313C47.0544 43.1037 47.1842 42.6187 47.1841 42.1251C47.184 41.6314 47.0539 41.1465 46.807 40.7191ZM29.7499 23C29.7499 21.7573 30.7573 20.75 31.9999 20.75C33.2425 20.75 34.2499 21.7573 34.2499 23V34.25C34.2499 35.4926 33.2425 36.5 31.9999 36.5C30.7573 36.5 29.7499 35.4926 29.7499 34.25V23ZM31.9999 43.25C30.7573 43.25 29.7499 42.2426 29.7499 41C29.7499 39.7573 30.7573 38.75 31.9999 38.75C33.2425 38.75 34.2499 39.7573 34.2499 41C34.2499 42.2426 33.2425 43.25 31.9999 43.25Z" fill="#F2990A"/>
</svg>
