<svg width="16" height="16" viewBox="0 0 16 16" fill="none" xmlns="http://www.w3.org/2000/svg">
<path d="M8.57121 0.571446C8.57126 0.646502 8.5565 0.720829 8.5278 0.790181C8.4991 0.859532 8.45701 0.922543 8.40394 0.975616C8.35086 1.02869 8.28785 1.07078 8.2185 1.09948C8.14915 1.12818 8.07482 1.14293 7.99977 1.14289C6.41328 1.14291 4.87589 1.69302 3.64953 2.69948C2.42318 3.70595 1.58374 5.1065 1.27425 6.6625C0.964759 8.2185 1.20436 9.83368 1.95224 11.2328C2.70012 12.632 3.90999 13.7285 5.37572 14.3356C6.84144 14.9427 8.47232 15.0228 9.99049 14.5623C11.5087 14.1017 12.8202 13.129 13.7016 11.8099C14.5829 10.4908 14.9797 8.90688 14.8242 7.32804C14.6686 5.7492 13.9705 4.27312 12.8487 3.15132C12.7618 3.06446 12.6645 2.98415 12.5713 2.90114L12.5713 5.14301C12.5713 5.29456 12.5111 5.43991 12.404 5.54708C12.2968 5.65425 12.1514 5.71445 11.9999 5.71445C11.8483 5.71445 11.703 5.65425 11.5958 5.54708C11.4886 5.43991 11.4284 5.29456 11.4284 5.14301L11.4284 1.71434C11.4284 1.63928 11.4431 1.56495 11.4718 1.4956C11.5006 1.42625 11.5426 1.36324 11.5957 1.31017C11.6488 1.2571 11.7118 1.21501 11.7811 1.1863C11.8505 1.1576 11.9248 1.14285 11.9999 1.14289L15.4286 1.14289C15.5801 1.14289 15.7255 1.2031 15.8326 1.31026C15.9398 1.41743 16 1.56278 16 1.71434C16 1.86589 15.9398 2.01124 15.8326 2.11841C15.7255 2.22558 15.5801 2.28578 15.4286 2.28578L13.5931 2.28578C13.6133 2.30559 13.6367 2.32328 13.6567 2.34326C14.9654 3.65203 15.7799 5.37408 15.9612 7.21601C16.1426 9.05793 15.6797 10.9058 14.6514 12.4447C13.6231 13.9836 12.0931 15.1183 10.3219 15.6556C8.55079 16.1928 6.64815 16.0993 4.93821 15.391C3.22827 14.6827 1.81682 13.4034 0.944357 11.7711C0.0718915 10.1388 -0.207608 8.25451 0.153481 6.43924C0.514571 4.62397 1.49391 2.99006 2.92462 1.8159C4.35534 0.641751 6.14892 4.30604e-07 7.99975 3.49702e-07C8.07481 -4.35226e-05 8.14914 0.014707 8.21849 0.0434087C8.28784 0.0721105 8.35086 0.114201 8.40393 0.167273C8.457 0.220346 8.4991 0.283359 8.5278 0.35271C8.5565 0.422061 8.57125 0.49639 8.57121 0.571446Z" fill="currentColor"/>
</svg>
