<svg width="16" height="16" viewBox="0 0 16 16" fill="none" xmlns="http://www.w3.org/2000/svg">
<path d="M14.1834 6.6201L3.33805 1.05198C3.08006 0.934095 2.79336 0.878415 2.50519 0.890226C2.21702 0.902036 1.93694 0.980945 1.69154 1.11946C1.44614 1.25797 1.24356 1.45149 1.10304 1.68165C0.962526 1.91181 0.888734 2.17096 0.888672 2.43449V13.5647C0.888784 13.974 1.06645 14.3665 1.38274 14.6563C1.69903 14.9461 2.12817 15.1096 2.57613 15.1109C2.84595 15.1102 3.11185 15.0519 3.35261 14.9406L14.1754 9.38272C14.4559 9.25455 14.6918 9.05775 14.857 8.81424C15.0222 8.57074 15.1101 8.29011 15.1109 8.00364C15.1117 7.71717 15.0254 7.43612 14.8617 7.19183C14.6979 6.94754 14.4631 6.74961 14.1834 6.6201Z" fill="currentColor"/>
</svg>
