<svg width="16" height="16" viewBox="0 0 16 16" fill="none" xmlns="http://www.w3.org/2000/svg">
<path d="M4.21058 0C3.62452 0.000780499 3.06266 0.257531 2.64825 0.713933C2.23384 1.17034 2.00071 1.78913 2 2.43458V13.5641C2 14.2098 2.2329 14.829 2.64746 15.2856C3.06203 15.7421 3.6243 15.9986 4.21058 15.9986C4.79687 15.9986 5.35914 15.7421 5.7737 15.2856C6.18827 14.829 6.42117 14.2098 6.42117 13.5641V2.43458C6.42046 1.78913 6.18733 1.17034 5.77292 0.713933C5.35851 0.257531 4.79665 0.000780499 4.21058 0Z" fill="currentColor"/>
<path d="M11.7894 0.00135659C11.2034 0.00213709 10.6415 0.258887 10.2271 0.715289C9.81267 1.17169 9.57954 1.79048 9.57883 2.43593V13.5654C9.57883 14.2111 9.81173 14.8304 10.2263 15.2869C10.6409 15.7435 11.2031 16 11.7894 16C12.3757 16 12.938 15.7435 13.3525 15.2869C13.7671 14.8304 14 14.2111 14 13.5654V2.43593C13.9993 1.79048 13.7662 1.17169 13.3518 0.715289C12.9373 0.258887 12.3755 0.00213709 11.7894 0.00135659Z" fill="currentColor"/>
</svg>
