<svg width="16" height="16" viewBox="0 0 16 16" fill="none" xmlns="http://www.w3.org/2000/svg">
<path d="M11.8182 5.71432H5.81929V3.68809C5.81929 2.21879 6.73229 1.14848 7.98779 1.1429C7.99472 1.1429 8.00271 1.1429 8.01125 1.14232C8.48231 1.14478 8.94257 1.29047 9.33611 1.56169C9.72966 1.83292 10.0396 2.21802 10.2282 2.67022C10.2868 2.80821 10.3951 2.9163 10.5296 2.97087C10.664 3.02543 10.8135 3.02204 10.9456 2.96143C11.0776 2.90082 11.1814 2.78792 11.2342 2.6474C11.287 2.50688 11.2846 2.35017 11.2275 2.21152C10.9528 1.55217 10.5 0.991438 9.92476 0.598468C9.34956 0.205498 8.67715 -0.00253327 7.99045 2.32834e-05H7.98564C6.12875 0.0083947 4.72836 1.59377 4.72836 3.68807V5.7143H4.18182C3.60334 5.71491 3.04872 5.95592 2.63968 6.38444C2.23063 6.81296 2.00058 7.39399 2 8.00001V13.7143C2.00058 14.3203 2.23063 14.9013 2.63968 15.3299C3.04872 15.7584 3.60334 15.9994 4.18182 16H11.8182C12.3967 15.9994 12.9513 15.7584 13.3603 15.3299C13.7694 14.9013 13.9994 14.3203 14 13.7143V8.00001C13.9994 7.394 13.7694 6.81298 13.3603 6.38446C12.9513 5.95594 12.3967 5.71493 11.8182 5.71432Z" fill="currentColor"/>
</svg>
