<svg width="12" height="11" viewBox="0 0 12 11" fill="none" xmlns="http://www.w3.org/2000/svg">
<path d="M11.1797 8.64768L6.71215 0.927742C6.62305 0.773383 6.4949 0.645192 6.34056 0.556052C6.18623 0.466912 6.01115 0.419963 5.83292 0.419922C5.65469 0.419881 5.47959 0.466749 5.32521 0.555818C5.17084 0.644887 5.04262 0.773018 4.95345 0.927336L0.484701 8.64767C0.395562 8.80206 0.348633 8.9772 0.348633 9.15548C0.348633 9.33375 0.395558 9.50889 0.484694 9.66329C0.573831 9.81768 0.702038 9.94589 0.856429 10.035C1.01082 10.1242 1.18595 10.1711 1.36423 10.1711H10.3006C10.4788 10.1711 10.6539 10.1241 10.8083 10.035C10.9627 9.94581 11.0908 9.81759 11.1799 9.66319C11.269 9.5088 11.3159 9.33366 11.3159 9.1554C11.3158 8.97714 11.2689 8.80204 11.1797 8.64768ZM5.02021 2.24912C5.02021 1.80038 5.38398 1.43662 5.83271 1.43662C6.28144 1.43662 6.64521 1.80038 6.64521 2.24912V6.31162C6.64521 6.76035 6.28144 7.12412 5.83271 7.12412C5.38398 7.12412 5.02021 6.76035 5.02021 6.31162V2.24912ZM5.83271 9.56162C5.38398 9.56162 5.02021 9.19785 5.02021 8.74912C5.02021 8.30038 5.38398 7.93662 5.83271 7.93662C6.28144 7.93662 6.64521 8.30038 6.64521 8.74912C6.64521 9.19785 6.28144 9.56162 5.83271 9.56162Z" fill="#FFBE4F"/>
</svg>
