<svg width="16" height="16" viewBox="0 0 16 16" fill="none" xmlns="http://www.w3.org/2000/svg">
<path d="M8.57133 0.571445C8.57137 0.646501 8.55662 0.720829 8.52792 0.79018C8.49922 0.859531 8.45713 0.922542 8.40406 0.975615C8.35099 1.02869 8.28797 1.07078 8.21863 1.09948C8.14928 1.12818 8.07495 1.14293 7.99989 1.14289C6.41344 1.14291 4.87607 1.69302 3.64973 2.69948C2.4234 3.70595 1.58397 5.1065 1.27449 6.6625C0.965 8.2185 1.2046 9.83368 1.95247 11.2328C2.70033 12.632 3.91019 13.7285 5.37589 14.3356C6.84159 14.9427 8.47245 15.0228 9.99058 14.5623C11.5087 14.1017 12.8202 13.129 13.7016 11.8099C14.583 10.4908 14.9797 8.90688 14.8242 7.32804C14.6687 5.7492 13.9705 4.27312 12.8487 3.15132C12.7619 3.06446 12.6645 2.98415 12.5714 2.90114L12.5714 5.14301C12.5714 5.29456 12.5112 5.43991 12.404 5.54708C12.2968 5.65425 12.1515 5.71445 11.9999 5.71445C11.8484 5.71445 11.703 5.65425 11.5959 5.54708C11.4887 5.43991 11.4285 5.29456 11.4285 5.14301L11.4285 1.71434C11.4285 1.63928 11.4432 1.56495 11.4719 1.4956C11.5006 1.42625 11.5427 1.36324 11.5958 1.31017C11.6489 1.2571 11.7119 1.215 11.7812 1.1863C11.8506 1.1576 11.9249 1.14285 11.9999 1.14289L15.4286 1.14289C15.5801 1.14289 15.7255 1.2031 15.8326 1.31026C15.9398 1.41743 16 1.56278 16 1.71434C16 1.86589 15.9398 2.01124 15.8326 2.11841C15.7255 2.22557 15.5801 2.28578 15.4286 2.28578L13.5931 2.28578C13.6134 2.30559 13.6368 2.32328 13.6568 2.34326C14.9655 3.65203 15.7799 5.37408 15.9612 7.21601C16.1426 9.05793 15.6797 10.9058 14.6515 12.4447C13.6232 13.9836 12.0931 15.1183 10.322 15.6556C8.55091 16.1928 6.6483 16.0993 4.93839 15.391C3.22848 14.6827 1.81705 13.4034 0.944598 11.7711C0.0721471 10.1388 -0.207348 8.25451 0.153736 6.43924C0.514819 4.62397 1.49414 2.99006 2.92483 1.8159C4.35553 0.64175 6.14908 4.30604e-07 7.99988 3.49702e-07C8.07494 -4.35226e-05 8.14927 0.014707 8.21862 0.0434078C8.28797 0.0721096 8.35098 0.114199 8.40405 0.167272C8.45712 0.220345 8.49922 0.283358 8.52792 0.352709C8.55662 0.422059 8.57137 0.49639 8.57133 0.571445Z" fill="currentColor"/>
<path d="M8.03398 11.468C9.49198 11.468 10.428 10.478 10.428 8.20101C10.428 5.86101 9.50998 4.89801 8.03398 4.89801C6.55798 4.89801 5.63998 5.86101 5.63998 8.20101C5.63998 10.478 6.57598 11.468 8.03398 11.468ZM8.03398 10.514C7.43998 10.514 7.08898 10.019 7.08898 8.20101C7.08898 6.38301 7.43998 5.84301 8.03398 5.84301C8.62798 5.84301 8.97898 6.38301 8.97898 8.20101C8.97898 10.019 8.62798 10.514 8.03398 10.514Z" fill="currentColor"/> 
</svg>
